<svg width="32" height="32" viewBox="0 0 32 32" fill="none" xmlns="http://www.w3.org/2000/svg">
<rect x="0.5" y="0.5" width="31" height="31" rx="15.5" stroke="#316DB4"/>
<path d="M9.95558 10.6666H15.2889C15.5718 10.6666 15.8431 10.779 16.0432 10.979C16.2432 11.1791 16.3556 11.4504 16.3556 11.7333C16.3556 12.0162 16.2432 12.2875 16.0432 12.4875C15.8431 12.6876 15.5718 12.8 15.2889 12.8H9.95558C9.67269 12.8 9.40137 12.6876 9.20134 12.4875C9.0013 12.2875 8.88892 12.0162 8.88892 11.7333C8.88892 11.4504 9.0013 11.1791 9.20134 10.979C9.40137 10.779 9.67269 10.6666 9.95558 10.6666ZM17.4222 19.2H22.7556C23.0385 19.2 23.3098 19.3123 23.5098 19.5124C23.7099 19.7124 23.8223 19.9837 23.8223 20.2666C23.8223 20.5495 23.7099 20.8208 23.5098 21.0209C23.3098 21.2209 23.0385 21.3333 22.7556 21.3333H17.4222C17.1394 21.3333 16.868 21.2209 16.668 21.0209C16.468 20.8208 16.3556 20.5495 16.3556 20.2666C16.3556 19.9837 16.468 19.7124 16.668 19.5124C16.868 19.3123 17.1394 19.2 17.4222 19.2ZM9.95558 14.9333H22.7556C23.0385 14.9333 23.3098 15.0457 23.5098 15.2457C23.7099 15.4458 23.8223 15.7171 23.8223 16C23.8223 16.2829 23.7099 16.5542 23.5098 16.7542C23.3098 16.9542 23.0385 17.0666 22.7556 17.0666H9.95558C9.67269 17.0666 9.40137 16.9542 9.20134 16.7542C9.0013 16.5542 8.88892 16.2829 8.88892 16C8.88892 15.7171 9.0013 15.4458 9.20134 15.2457C9.40137 15.0457 9.67269 14.9333 9.95558 14.9333Z" fill="#316DB4"/>
</svg>
